# xmcd
#
# Track frame offsets: 
#        150
#        12671
#        26637
#        40548
#        56943
#        72723
#        91183
#        106038
#        125989
#        141448
#        157301
#        178036
#        191920
#        208255
#        223954
#        239421
#        261090
#        277303
#        292356
#        311349
#
# Disc length: 4439 seconds
#
# Revision: 0
# Processed by: cddbd v1.5.2PL0 Copyright (c) Steve Scherf et al.
# Submitted via: ExactAudioCopy v1.1
#
DISCID=57115514
DTITLE=Dana Winner - 30 - CD 3 (Live)
DYEAR=2019
DGENRE=Chanson
TTITLE0=Op Het Dak Van De Wereld (Live)
TTITLE1=Zeven Regenbogen (Live)
TTITLE2=Duizenden Mooie Dromen (Live)
TTITLE3=Woordenloos (Live)
TTITLE4=De Oude Man En De Zee (Live)
TTITLE5=Geef De Kinderen Een Wereld (Live)
TTITLE6=Kom In Mijn Armen (Live)
TTITLE7=Vincent (Live)
TTITLE8=Make You Feel My Love (Live)
TTITLE9=Vleugels (Live)
TTITLE10=Iedereen Begrijpt (Live)
TTITLE11=Hallelujah (Live)
TTITLE12=Ik Hou Van Jou (Live)
TTITLE13=Westenwind (Live)
TTITLE14=Geef Me Je Droom (Live)
TTITLE15=Perfect (Live)
TTITLE16=Waar Jij Ook Bent (Live)
TTITLE17=Wervelwind (Live)
TTITLE18=Loop Naar Het Licht (Live)
TTITLE19=Fields Of Gold (Live)
EXTD=
EXTT0=
EXTT1=
EXTT2=
EXTT3=
EXTT4=
EXTT5=
EXTT6=
EXTT7=
EXTT8=
EXTT9=
EXTT10=
EXTT11=
EXTT12=
EXTT13=
EXTT14=
EXTT15=
EXTT16=
EXTT17=
EXTT18=
EXTT19=
PLAYORDER=
